<?xml version="1.0" encoding="UTF-8" standalone="no"?>
<svg width="1002px" height="451px" viewBox="0 0 1002 451" version="1.1" xmlns="http://www.w3.org/2000/svg" xmlns:xlink="http://www.w3.org/1999/xlink">
    <!-- Generator: Sketch 39.1 (31720) - http://www.bohemiancoding.com/sketch -->
    <title>Group 3</title>
    <desc>Created with Sketch.</desc>
    <defs></defs>
    <g id="Page-1" stroke="none" stroke-width="1" fill="none" fill-rule="evenodd">
        <g id="Desktop-HD---7-Copy" transform="translate(-403.000000, -249.000000)">
            <g id="herobg">
                <g id="Oval-+-Oval-+-Oval-+-Oval-Mask">
                    <g id="Group-3" transform="translate(403.000000, 250.000000)">
                        <circle id="Oval" stroke="#70A2E4" stroke-width="2" stroke-linecap="round" stroke-linejoin="round" stroke-dasharray="5" fill="#2E507D" cx="501" cy="500" r="500"></circle>
                        <circle id="Oval" stroke="#70A2E4" stroke-width="2" stroke-linecap="round" stroke-linejoin="round" stroke-dasharray="5" fill="#2E507D" cx="501" cy="500" r="400"></circle>
                        <circle id="Oval" stroke="#70A2E4" stroke-width="2" stroke-linecap="round" stroke-linejoin="round" stroke-dasharray="5" fill="#2E507D" cx="501" cy="500" r="300"></circle>
                        <circle id="Oval" stroke="#70A2E4" stroke-width="2" stroke-linecap="round" stroke-linejoin="round" stroke-dasharray="5" fill="#2E507D" cx="501" cy="500" r="200"></circle>
                        <g id="Group-2" transform="translate(0.000000, 164.000000)">
                            <circle id="Oval-2" fill="#7A9FE8" cx="782" cy="237" r="31"></circle>
                            <circle id="Oval-2-Copy" fill="#7A9FE8" cx="971" cy="145" r="31"></circle>
                            <circle id="Oval-2-Copy-2" fill="#7A9FE8" cx="762" cy="31" r="31"></circle>
                            <circle id="Oval-2-Copy-3" fill="#7A9FE8" cx="219" cy="237" r="31"></circle>
                            <circle id="Oval-2-Copy-4" fill="#7A9FE8" cx="31" cy="156" r="31"></circle>
                            <circle id="Oval-2-Copy-5" fill="#7A9FE8" cx="235" cy="31" r="31"></circle>
                            <g id="Speedometer" transform="translate(763.000000, 219.000000)" fill="#FFFFFF">
                                <path d="M20,0 C8.9408015,0 0,8.9408015 0,20 C0,24.1714983 1.26803642,28.1659983 3.64583333,31.4583333 L6.35416667,29.53125 C6.24333,29.3777833 6.14675183,29.2198717 6.04166667,29.0625 L8.90625,27.3958333 L8.07291667,25.9375 L5.15625,27.6041667 C4.0872965,25.548705 3.502866,23.23498 3.38541667,20.8333333 L6.66666667,20.8333333 L6.66666667,19.1666667 L3.38541667,19.1666667 C3.50344167,16.729485 4.1172335,14.4353017 5.15625,12.3958333 L8.07291667,14.0625 L8.90625,12.6041667 L5.98958333,10.8854167 C7.2617165,8.92610617 8.97157983,7.3066235 10.9375,6.04166667 L12.6041667,8.90625 L14.0625,8.07291667 L12.3958333,5.20833333 C14.4459748,4.1655535 16.7187383,3.50387467 19.1666667,3.38541667 L19.1666667,6.66666667 L20.8333333,6.66666667 L20.8333333,3.38541667 C23.2812617,3.50387467 25.554025,4.1655535 27.6041667,5.20833333 L25.9375,8.07291667 L27.3958333,8.90625 L29.0625,6.04166667 C31.02842,7.3066235 32.7382833,8.92610617 34.0104167,10.8854167 L33.0729167,11.4583333 L33.90625,12.8645833 L34.84375,12.34375 C35.895865,14.3940225 36.4957283,16.7123283 36.6145833,19.1666667 L33.3333333,19.1666667 L33.3333333,20.8333333 L36.6145833,20.8333333 C36.5035,23.3369667 35.8892617,25.6300917 34.84375,27.6041667 L31.9270833,25.9375 L31.09375,27.3958333 L33.9583333,29.0625 C33.8646333,29.1950717 33.79621,29.35063 33.6979167,29.4791667 L36.3020833,31.5104167 C38.714855,28.355255 40,24.3240733 40,20 C40,8.9408015 31.0591983,0 20,0 L20,0 Z M32.65625,12.5 L21.71875,17.1875 C21.214515,16.8800683 20.6305733,16.6666667 20,16.6666667 C18.1666667,16.6666667 16.6666667,18.1666667 16.6666667,20 C16.6666667,21.8333333 18.1666667,23.3333333 20,23.3333333 C21.8333333,23.3333333 23.3333333,21.8333333 23.3333333,20 C23.3333333,19.9299017 23.3376533,19.860725 23.3333333,19.7916667 L32.8125,12.65625 L32.65625,12.5 L32.65625,12.5 Z M13.3333333,30 L13.3333333,35 L26.6666667,35 L26.6666667,30 L13.3333333,30 L13.3333333,30 Z" id="Shape"></path>
                            </g>
                            <g id="Piston" transform="translate(957.000000, 125.000000)" fill="#FFFFFF">
                                <path d="M18.3157895,0 C13.2789474,0 7.78421053,1.69230769 7.63157895,4.61538462 L29,4.61538462 C28.8473684,1.69230769 23.3526316,0 18.3157895,0 L18.3157895,0 Z M7.63157895,6.15384615 L7.63157895,16.1538462 C7.63157895,16.1538462 10.3789474,15.0961538 18.3157895,15.0961538 C26.2526316,15.0961538 29,16.1538462 29,16.1538462 L29,6.15384615 L7.63157895,6.15384615 L7.63157895,6.15384615 Z M18.3157895,8.17307692 C19.8421053,8.17307692 20.8914474,9.23076923 20.8914474,10.7692308 C20.8914474,12.1538462 19.6894737,13.3653846 18.3157895,13.3653846 C16.9421053,13.3653846 15.7401316,12.3076923 15.7401316,10.7692308 C15.7401316,9.38461538 16.7894737,8.17307692 18.3157895,8.17307692 L18.3157895,8.17307692 Z M14.2138158,16.9230769 C14.2138158,16.9230769 12.0578947,22.5961538 8.39473684,24.9038462 C8.38351399,24.9332585 8.40342051,24.9716431 8.39473684,25 C7.77478843,25.1943323 7.17810961,25.4281554 6.62993421,25.7692308 L5.34210526,25.2403846 C4.57894737,24.7788462 3.64407895,25.2403846 3.33881579,26.0096154 L1.04934211,31.6826923 C0.744078947,32.4519231 1.0875,33.3942308 2.00328947,33.7019231 L3.43421053,34.3269231 C4.04653133,36.5546969 5.59244914,38.4735323 7.91776316,39.375 C8.83355263,39.8365385 9.76842105,40 10.6842105,40 C12.1516061,40 13.5758161,39.56582 14.7861842,38.7980769 L16.1694079,39.375 C16.7799342,39.6826923 17.7243421,39.375 18.0296053,38.6057692 L20.3190789,32.9326923 C20.6243421,32.1634615 20.3190789,31.2211538 19.5559211,30.9134615 L17.9342105,30.2403846 C17.7287577,29.5100215 17.4356975,28.80868 17.0279605,28.1730769 C16.0470813,24.3784708 19.0789474,16.9230769 19.0789474,16.9230769 L14.2138158,16.9230769 L14.2138158,16.9230769 Z M10.6842105,27.6923077 C11.2947368,27.6923077 11.8957237,27.8269231 12.3536184,27.9807692 C13.4220395,28.4423077 14.3282895,29.4038462 14.7861842,30.4807692 C15.2440789,31.5576923 15.2440789,32.9134615 14.7861842,33.9903846 C14.1756579,35.8365385 12.5157895,36.9230769 10.6842105,36.9230769 C10.0736842,36.9230769 9.47269737,36.7884615 9.01480263,36.6346154 C6.72532895,35.7115385 5.47565789,32.9326923 6.39144737,30.625 C7.15460526,28.7788462 8.85263158,27.6923077 10.6842105,27.6923077 L10.6842105,27.6923077 Z" id="Shape"></path>
                            </g>
                            <g id="Turbocharger-Filled" transform="translate(744.000000, 15.000000)" fill="#FFFFFF">
                                <path d="M31.3043478,0 C30.8715652,0 30.5217391,0.352 30.5217391,0.785714286 L30.5217391,11 C30.5217391,11.4337143 30.8715652,11.7857143 31.3043478,11.7857143 L35.2173913,11.7857143 C35.6501739,11.7857143 36,11.4337143 36,11 L36,0.785714286 C36,0.352 35.6501739,0 35.2173913,0 L31.3043478,0 L31.3043478,0 Z M14.0869565,1.57142857 C6.31956522,1.57142857 0,7.91607143 0,15.7142857 C0,23.5125 6.31956522,29.8571429 14.0869565,29.8571429 C21.8543478,29.8571429 28.173913,23.5125 28.173913,15.7142857 C28.173913,14.3675714 27.9768913,13.0546429 27.611413,11.7857143 L18.513587,11.7857143 C20.1108913,13.0821429 21.1304348,15.0629286 21.1304348,17.2857143 C21.1304348,21.1915 17.9773043,24.3571429 14.0869565,24.3571429 C10.1966087,24.3571429 7.04347826,21.1915 7.04347826,17.2857143 C7.04347826,13.3799286 10.1966087,10.2142857 14.0869565,10.2142857 L28.9565217,10.2142857 L28.9565217,1.57142857 L14.0869565,1.57142857 L14.0869565,1.57142857 Z M12.0326087,12.1294643 L10.6630435,12.9151786 L12.3016304,15.7633929 C12.1205692,15.9772171 11.9821203,16.2306108 11.8858696,16.5 L8.60869565,16.5 L8.60869565,18.0714286 L11.8858696,18.0714286 C11.9821203,18.3408178 12.1205692,18.5942114 12.3016304,18.8080357 L10.6630435,21.65625 L12.0326087,22.4419643 L13.6711957,19.59375 C13.8091156,19.6190838 13.9417474,19.6428571 14.0869565,19.6428571 C14.2321657,19.6428571 14.3647975,19.6190838 14.5027174,19.59375 L16.1413043,22.4419643 L17.5108696,21.65625 L15.8722826,18.8080357 C16.0533438,18.5942114 16.1917928,18.3408178 16.2880435,18.0714286 L19.5652174,18.0714286 L19.5652174,16.5 L16.2880435,16.5 C16.1917928,16.2306108 16.0533438,15.9772171 15.8722826,15.7633929 L17.5108696,12.9151786 L16.1413043,12.1294643 L14.5027174,14.9776786 C14.3647975,14.9523448 14.2321657,14.9285714 14.0869565,14.9285714 C13.9417474,14.9285714 13.8091156,14.9523448 13.6711957,14.9776786 L12.0326087,12.1294643 L12.0326087,12.1294643 Z M3.88858696,27.5982143 L3.17934783,29.5870536 C3.14804348,29.6734821 3.13043478,29.766 3.13043478,29.8571429 L3.13043478,32.2142857 C3.13043478,32.6487857 3.48104348,33 3.91304348,33 L24.2608696,33 C24.6936522,33 25.0434783,32.6487857 25.0434783,32.2142857 L25.0434783,29.8571429 C25.0434783,29.766 25.025087,29.6734821 24.9945652,29.5870536 L24.2853261,27.5982143 C21.5430652,29.9710714 17.9827826,31.4285714 14.0869565,31.4285714 C10.1911304,31.4285714 6.63163043,29.9710714 3.88858696,27.5982143 L3.88858696,27.5982143 Z" id="Shape"></path>
                            </g>
                            <g id="Wheel" transform="translate(199.000000, 217.000000)" fill="#FFFFFF">
                                <path d="M20,0.288461538 C9.11384615,0.288461538 0.288461538,9.11384615 0.288461538,20 C0.288461538,30.8861538 9.11384615,39.7115385 20,39.7115385 C30.8861538,39.7115385 39.7115385,30.8861538 39.7115385,20 C39.7115385,9.11384615 30.8861538,0.288461538 20,0.288461538 L20,0.288461538 Z M20,4.51923077 C28.5338462,4.51923077 35.4807692,11.4661538 35.4807692,20 C35.4807692,28.5338462 28.5338462,35.4807692 20,35.4807692 C11.4646154,35.4807692 4.51923077,28.5338462 4.51923077,20 C4.51923077,11.4661538 11.4646154,4.51923077 20,4.51923077 L20,4.51923077 Z M20,6.29807692 C12.4261538,6.29807692 6.29807692,12.4276923 6.29807692,20 C6.29807692,27.5723077 12.4261538,33.7019231 20,33.7019231 C27.5738462,33.7019231 33.7019231,27.5723077 33.7019231,20 C33.7019231,12.4276923 27.5738462,6.29807692 20,6.29807692 L20,6.29807692 Z M18.6538462,9.23076923 C18.6523154,9.24360877 18.6547508,9.26653846 18.6538462,9.27884615 L18.3173077,15.2403846 C17.7157692,15.4526923 17.1565385,15.7492308 16.6826923,16.1538462 L11.3461538,13.5096154 C13.0734908,11.2060268 15.6575508,9.60297754 18.6538462,9.23076923 L18.6538462,9.23076923 Z M21.3942308,9.23076923 C24.3299369,9.61166769 26.8884062,11.1692558 28.6057692,13.4134615 L23.2692308,16.1057692 C22.8169231,15.7242308 22.2969231,15.4465385 21.7307692,15.2403846 L21.3942308,9.27884615 C21.3933785,9.26601769 21.3957815,9.244184 21.3942308,9.23076923 L21.3942308,9.23076923 Z M29.9519231,15.7692308 C29.9603969,15.76348 29.9914123,15.7755492 30,15.7692308 C30.55036,17.0682446 30.8653846,18.5026923 30.8653846,20 C30.8653846,21.4973077 30.55036,22.9317554 30,24.2307692 C29.9914492,24.2244508 29.96036,24.23652 29.9519231,24.2307692 L25,20.9615385 C25.0569231,20.6553846 25.0961538,20.3215385 25.0961538,20 C25.0961538,19.6784615 25.0584615,19.3446154 25,19.0384615 L29.9519231,15.7692308 L29.9519231,15.7692308 Z M9.95192308,15.8653846 C9.96057862,15.8716385 9.99145015,15.8597092 10,15.8653846 L15,19.0865385 C14.9507692,19.3757692 14.9038462,19.6938462 14.9038462,20 C14.9038462,20.3061538 14.9476923,20.6226923 15,20.9134615 L10,24.1346154 C9.99145015,24.1402908 9.96057862,24.1283615 9.95192308,24.1346154 C9.42748215,22.8615862 9.13461538,21.4602462 9.13461538,20 C9.13461538,18.5397538 9.42748215,17.1384138 9.95192308,15.8653846 L9.95192308,15.8653846 Z M20,17.5961538 C21.3338462,17.5961538 22.4038462,18.6646154 22.4038462,20 C22.4038462,21.3353846 21.3338462,22.4038462 20,22.4038462 C18.6630769,22.4038462 17.5961538,21.3353846 17.5961538,20 C17.5961538,18.6646154 18.6630769,17.5961538 20,17.5961538 L20,17.5961538 Z M16.6826923,23.8461538 C17.1565385,24.2523077 17.7157692,24.5488462 18.3173077,24.7596154 L18.6538462,30.7211538 C18.6547508,30.7334169 18.6523185,30.7564308 18.6538462,30.7692308 C15.6575508,30.3970231 13.0734908,28.7939738 11.3461538,26.4903846 L16.6826923,23.8461538 L16.6826923,23.8461538 Z M23.2692308,23.8942308 L28.6057692,26.5865385 C26.8884062,28.8307446 24.3299369,30.3883323 21.3942308,30.7692308 C21.3957846,30.7557738 21.3933785,30.7340292 21.3942308,30.7211538 L21.7307692,24.7596154 C22.2969231,24.5534615 22.8169231,24.2757692 23.2692308,23.8942308 L23.2692308,23.8942308 Z" id="Shape"></path>
                            </g>
                            <g id="Steering-Wheel" transform="translate(215.000000, 11.000000)" fill="#FFFFFF">
                                <path d="M20,0 C9,0 0,9 0,20 C0,31 9,40 20,40 C31,40 40,31 40,20 C40,9 31,0 20,0 L20,0 Z M20,5 C25.8333333,5 31,8.33333333 33.5,13.3333333 C34,14.3333333 33,15.3333333 32,14.8333333 C29.3333333,13.5 24.8333333,11.8333333 20,11.8333333 C15.1666667,11.8333333 10.6666667,13.5 8,14.8333333 C7.16666667,15.3333333 6.16666667,14.3333333 6.5,13.3333333 C9,8.33333333 14.1666667,5 20,5 L20,5 Z M16.8333333,33.8333333 C16.8333333,34.3333333 16.3333333,34.6666667 16,34.5 C11,33.1666667 7,29.1666667 5.66666667,24.1666667 C5.5,23.6666667 5.83333333,23.3333333 6.33333333,23.3333333 L6.5,23.3333333 C12.1666667,23.1666667 16.8333333,27.8333333 16.8333333,33.8333333 L16.8333333,33.8333333 L16.8333333,33.8333333 Z M20,24.1666667 C17.6666667,24.1666667 15.8333333,22.3333333 15.8333333,20 C15.8333333,17.6666667 17.6666667,15.8333333 20,15.8333333 C22.3333333,15.8333333 24.1666667,17.6666667 24.1666667,20 C24.1666667,22.3333333 22.3333333,24.1666667 20,24.1666667 L20,24.1666667 Z M24,34.5 C23.5,34.6666667 23.1666667,34.3333333 23.1666667,33.8333333 L23.1666667,33.6666667 C23.1666667,27.8333333 27.8333333,23.1666667 33.6666667,23.1666667 L33.8333333,23.1666667 C34.3333333,23.1666667 34.6666667,23.6666667 34.5,24 C33,29 29,33 24,34.5 L24,34.5 Z" id="Shape"></path>
                            </g>
                            <g id="Engine" transform="translate(12.000000, 142.000000)" fill="#FFFFFF">
                                <path d="M15.2307692,0.00156215008 C14.5295798,0.0811308196 14.0041548,0.688254772 14.0192308,1.40148404 L14.0192308,2.80140594 C14.0077432,3.56229641 14.6080204,4.1887874 15.3605769,4.20132783 L18,4.20132783 L18,5.60124972 L22.1538462,5.60124972 L22.1538462,4.20132783 L24.9230769,4.20132783 C25.2919951,4.20701411 25.6474547,4.06134945 25.9083495,3.79757044 C26.1692444,3.53379144 26.3133164,3.17440244 26.3076923,2.80140594 L26.3076923,1.40148404 C26.3133164,1.02848754 26.1692444,0.669098537 25.9083495,0.405319534 C25.6474547,0.141540531 25.2919951,-0.00412412833 24.9230769,0.00156215008 L20.7692308,0.00156215008 L15.3605769,0.00156215008 C15.3173322,-0.000520716693 15.2740139,-0.000520716693 15.2307692,0.00156215008 L15.2307692,0.00156215008 Z M13.8461538,7.00117161 C13.5692308,7.00117161 13.3009615,7.29865501 13.0240385,7.4386472 L9.25961538,11.2009373 L6.92307692,11.2009373 C6.50769231,11.2009373 6.38653846,11.3584285 5.97115385,11.6384129 C5.55576923,11.9183973 5.53846154,12.1808826 5.53846154,12.6008592 L5.53846154,15.400703 L4.15384615,15.400703 L4.15384615,12.7321019 C4.15384615,12.0321409 3.6,11.33218 2.76923077,11.33218 L1.38461538,11.33218 C0.830769231,11.1921878 0,11.7521565 0,12.7321019 L0,22.5315551 C0,23.2315161 0.553846154,23.931477 1.38461538,23.931477 L2.76923077,23.931477 C3.46153846,23.931477 4.15384615,23.3715082 4.15384615,22.5315551 L4.15384615,19.7317113 L5.53846154,19.7317113 L5.53846154,22.5315551 C5.53846154,23.2315161 6.09230769,23.931477 6.92307692,23.931477 L9.12980769,23.931477 L13.0240385,27.5625244 C13.3009615,27.8425088 13.5692308,28 13.8461538,28 L23.5384615,28 C23.9538462,28 24.2134615,27.8425088 24.4903846,27.5625244 L30.0288462,21.9628368 C30.3057692,21.6828525 30.4615385,21.4116176 30.4615385,21.1316332 L30.4615385,19.7317113 L31.8461538,19.7317113 L31.8461538,22.4003124 C31.8461538,23.1002734 32.4,23.8002343 33.2307692,23.8002343 L34.6153846,23.8002343 C35.3076923,23.8002343 36,23.2402656 36,22.4003124 L36,12.6008592 C36,11.9008982 35.2990385,11.2009373 34.7451923,11.2009373 L33.3605769,11.2009373 C32.6682692,11.2009373 31.9759615,11.760906 31.9759615,12.6008592 L31.9759615,15.400703 L30.5913462,15.400703 L30.5913462,8.40109351 C30.5913462,7.70113256 30.0375,7.00117161 29.2067308,7.00117161 L13.8461538,7.00117161 L13.8461538,7.00117161 Z M19.125,11.33218 L22.4134615,11.33218 L19.125,16.9318675 L22.2836538,16.9318675 L22.2836538,16.8006249 L22.4134615,16.8006249 L22.2836538,16.9318675 L16.0528846,25.0689135 L18.4326923,18.4630321 L15.4903846,18.4630321 L19.125,11.33218 L19.125,11.33218 Z" id="Shape"></path>
                            </g>
                        </g>
                    </g>
                </g>
            </g>
        </g>
    </g>
</svg>