<?xml version="1.0" encoding="UTF-8" standalone="no"?>
<svg width="85px" height="85px" viewBox="0 0 85 85" version="1.1" xmlns="http://www.w3.org/2000/svg" xmlns:xlink="http://www.w3.org/1999/xlink">
    <!-- Generator: Sketch 39.1 (31720) - http://www.bohemiancoding.com/sketch -->
    <title>icon</title>
    <desc>Created with Sketch.</desc>
    <defs></defs>
    <g id="Page-1" stroke="none" stroke-width="1" fill="none" fill-rule="evenodd">
        <g id="Desktop-HD---7" transform="translate(-1082.000000, -864.000000)">
            <g id="icon" transform="translate(1082.000000, 864.000000)">
                <circle id="Oval-2" fill="#2E507D" cx="42.5" cy="42.5" r="42.5"></circle>
                <g id="Search" transform="translate(23.000000, 23.000000)" fill="#FFFFFF">
                    <path d="M14,0 C6.2,0 0,6.2 0,14 C0,21.8 6.2,28 14,28 C17.444856,28 20.57558,26.772392 23,24.75 L24,25.75 L24,27.375 L36.625,40 L40,36.625 L27.375,24 L25.625,24 L24.6875,23.0625 C26.74427,20.628776 28,17.477212 28,14 C28,6.2 21.8,0 14,0 L14,0 Z M14,4 C19.6,4 24,8.4 24,14 C24,19.6 19.6,24 14,24 C8.4,24 4,19.6 4,14 C4,8.4 8.4,4 14,4 L14,4 Z" id="Shape"></path>
                </g>
            </g>
        </g>
    </g>
</svg>