<?xml version="1.0" encoding="UTF-8" standalone="no"?>
<svg width="85px" height="85px" viewBox="0 0 85 85" version="1.1" xmlns="http://www.w3.org/2000/svg" xmlns:xlink="http://www.w3.org/1999/xlink">
    <!-- Generator: Sketch 39.1 (31720) - http://www.bohemiancoding.com/sketch -->
    <title>icon</title>
    <desc>Created with Sketch.</desc>
    <defs></defs>
    <g id="Page-1" stroke="none" stroke-width="1" fill="none" fill-rule="evenodd">
        <g id="Desktop-HD---7" transform="translate(-265.000000, -1442.000000)">
            <g id="Group-7" transform="translate(720.000000, 1599.000000) scale(-1, 1) translate(-720.000000, -1599.000000) translate(0.000000, 1299.000000)">
                <g id="icon" transform="translate(1132.500000, 185.500000) scale(-1, 1) translate(-1132.500000, -185.500000) translate(1090.000000, 143.000000)">
                    <circle id="Oval-2" fill="#2E507D" cx="42.5" cy="42.5" r="42.5"></circle>
                    <g id="Garage" transform="translate(23.000000, 23.000000)" fill="#FFFFFF">
                        <path d="M20,0 L0,11.6666667 L0,40 L40,40 L40,11.6666667 L20,0 L20,0 Z M20,10 C25.6666667,10 27.34375,10.6770833 27.34375,10.6770833 C28.34375,11.0104167 30.1770833,11.4791667 30.6770833,12.8125 C31.0104167,13.6458333 32.3333333,17.1666667 33.3333333,20 L34.6875,20 C35.3541667,20 35.9791667,20.4791667 36.1458333,21.1458333 L36.5104167,22.34375 C36.84375,22.84375 36.5,23.3333333 35.8333333,23.3333333 L34.4791667,23.3333333 C34.6458333,23.8333333 34.84375,24.1666667 34.84375,24.1666667 C35.0104167,24.3333333 35,25.1458333 35,25.3125 L35,31.6666667 L35,32.1875 L35,35.5208333 C35,36.1875 34.5208333,36.6666667 33.8541667,36.6666667 L29.4791667,36.6666667 C28.8125,36.6666667 28.3333333,36.1875 28.3333333,35.5208333 L28.3333333,33.3333333 L11.6666667,33.3333333 L11.6666667,35.5208333 C11.6666667,36.1875 11.1875,36.6666667 10.5208333,36.6666667 L6.14583333,36.6666667 C5.47916667,36.6666667 5,36.1875 5,35.5208333 L5,32.1875 L5,31.6666667 L5,25.3125 C5,25.1458333 4.98958333,24.3333333 5.15625,24.1666667 C5.15625,24.1666667 5.35416667,23.8333333 5.52083333,23.3333333 L4.16666667,23.3333333 C3.5,23.3333333 3.15625,22.8541667 3.48958333,22.1875 L3.85416667,20.9895833 C4.02083333,20.4895833 4.64583333,20 5.3125,20 L6.66666667,20 C7.66666667,17 8.98958333,13.3125 9.32291667,12.8125 C9.82291667,11.6458333 11.4895833,11.0104167 12.65625,10.6770833 C12.65625,10.6770833 14.3333333,10 20,10 L20,10 Z M20,12.5 C11.5,12.5 11.3125,13.8333333 11.1458333,14.1666667 C10.9791667,14.6666667 10,16.8541667 9.16666667,20.5208333 C9.16666667,20.5208333 12.8333333,21.6666667 20,21.6666667 C27.1666667,21.6666667 30.8333333,20.5208333 30.8333333,20.5208333 C30,17.1875 28.9791667,14.6770833 28.6458333,14.0104167 C28.6458333,14.0104167 28.5,12.5 20,12.5 L20,12.5 Z M31.8229167,24.6875 C31.15625,24.6875 29.6458333,25.34375 28.6458333,25.6770833 C27.6458333,26.1770833 26.5104167,26.5104167 26.5104167,27.34375 C26.5104167,28.0104167 26.84375,28.3333333 28.1770833,28.3333333 L30,28.3333333 C31.6666667,28.3333333 33.1770833,28.1875 33.1770833,27.1875 L33.1770833,25.9895833 C33.34375,24.8229167 32.65625,24.6875 31.8229167,24.6875 L31.8229167,24.6875 Z M7.5,24.84375 C6.984375,24.8984383 6.51041667,25.1145833 6.51041667,25.9895833 L6.51041667,27.1875 C6.51041667,28.1875 8.1875,28.3333333 9.6875,28.3333333 L11.6666667,28.3333333 C13,28.3333333 13.3333333,28.0104167 13.3333333,27.34375 C13.3333333,26.6770833 12.1458333,26.1666667 11.1458333,25.8333333 C10.1458333,25.3333333 8.85416667,24.84375 8.02083333,24.84375 C7.85416667,24.84375 7.671875,24.82552 7.5,24.84375 L7.5,24.84375 Z" id="Shape"></path>
                    </g>
                </g>
            </g>
        </g>
    </g>
</svg>