<?xml version="1.0" encoding="UTF-8" standalone="no"?>
<svg width="85px" height="85px" viewBox="0 0 85 85" version="1.1" xmlns="http://www.w3.org/2000/svg" xmlns:xlink="http://www.w3.org/1999/xlink">
    <!-- Generator: Sketch 39.1 (31720) - http://www.bohemiancoding.com/sketch -->
    <title>Group 14</title>
    <desc>Created with Sketch.</desc>
    <defs></defs>
    <g id="Page-1" stroke="none" stroke-width="1" fill="none" fill-rule="evenodd">
        <g id="Desktop-HD---7" transform="translate(-1087.000000, -2064.000000)">
            <g id="Bitmap-Copy-2" transform="translate(0.000000, 1899.000000)">
                <g id="Group-5" transform="translate(954.000000, 165.000000)">
                    <g id="Group-14" transform="translate(133.000000, 0.000000)">
                        <circle id="Oval-2" fill="#2E507D" cx="42.5" cy="42.5" r="42.5"></circle>
                        <g id="Sell" transform="translate(23.000000, 23.000000)" fill="#FFFFFF">
                            <path d="M6.66666667,0 L6.66666667,18.3333333 L33.3333333,18.3333333 L33.3333333,0 L6.66666667,0 L6.66666667,0 Z M15,3.33333333 L25,3.33333333 L25,5 L15,5 L15,3.33333333 L15,3.33333333 Z M9.73958333,24.21875 C8.86472983,24.2419633 7.84,24.5058333 6.40625,25.0520833 C4.04291667,25.9520833 0.104166667,27.8125 0.104166667,27.8125 L4.84375,38.28125 L7.08333333,36.9270833 C8.42,36.0770833 9.7,36.1020833 11.4583333,36.9270833 C13.4316667,37.8520833 16.1579167,38.7683333 18.0729167,39.375 C20.9729167,40.2933333 21.4770833,40.1625 23.3854167,39.0625 C25.01375,38.1258333 36.54875,31.32375 37.7604167,30.46875 C39.6504167,29.13375 40.2366667,27.94125 39.375,26.8229167 C38.7233333,25.97625 37.2408333,25.27625 34.2708333,27.03125 C34.5458333,25.7979167 33.6045833,25.0520833 32.4479167,25.0520833 C31.4229167,25.0520833 30.2225,25.2833333 29.2708333,26.25 C27.9041667,24.45 26.4883333,24.7095833 23.75,26.40625 C22.7066667,27.0545833 21.77875,27.5820833 21.09375,27.96875 C20.9120833,28.0720833 20.7716667,28.1508333 20.625,28.2291667 C20.8933333,28.2858333 21.1583333,28.3333333 21.4583333,28.3333333 C25.3,28.3333333 28.3333333,28.3333333 28.3333333,31.6666667 C28.3333333,34.2283333 25.3770833,35.0204167 23.8020833,35.0520833 L18.3333333,35.0520833 C15.4,35.0520833 12.5520833,31.9270833 12.5520833,31.9270833 C12.5520833,31.9270833 15.92,33.3333333 18.3333333,33.3333333 L23.75,33.3333333 C23.7616667,33.3333333 26.6666667,33.2166667 26.6666667,31.6666667 C26.6666667,30.2483333 25.2233333,30 22.9166667,30 C19.1533333,30 17.2916667,28.28125 17.2916667,28.28125 C17.2916667,28.28125 14.3879167,26.1345833 13.4895833,25.5729167 C12.1614583,24.7427083 11.1976725,24.1800617 9.73958333,24.21875 L9.73958333,24.21875 Z" id="Shape"></path>
                        </g>
                    </g>
                </g>
            </g>
        </g>
    </g>
</svg>