<?xml version="1.0" encoding="UTF-8" standalone="no"?>
<svg width="129px" height="30px" viewBox="0 0 129 30" version="1.1" xmlns="http://www.w3.org/2000/svg" xmlns:xlink="http://www.w3.org/1999/xlink">
    <!-- Generator: Sketch 39.1 (31720) - http://www.bohemiancoding.com/sketch -->
    <title>logo</title>
    <desc>Created with Sketch.</desc>
    <defs></defs>
    <g id="Page-1" stroke="none" stroke-width="1" fill="none" fill-rule="evenodd">
        <g id="Desktop-HD---7" transform="translate(-36.000000, -25.000000)" fill="#FFFFFF">
            <g id="Group-11" transform="translate(36.000000, 22.000000)">
                <path d="M14.5439719,18.0168161 C14.6603186,18.4316164 14.7663473,18.8576211 14.8620611,19.294843 C15.1058877,18.8464103 15.3590912,18.409195 15.6216791,17.9831839 C15.8842671,17.5571728 16.1552943,17.147984 16.4347687,16.7556054 L25.4069441,3.79035874 C25.5401162,3.59977483 25.6718834,3.45123372 25.8022496,3.34473094 C25.9326158,3.23822817 26.0667345,3.15975362 26.2046098,3.10930493 C26.342485,3.05885625 26.4939603,3.02802696 26.6590402,3.01681614 C26.82412,3.00560533 27.0192122,3 27.2443226,3 L31.0936905,3 L27.013108,27.4002242 L22.539062,27.4002242 L25.0447815,12.4170404 C25.0954023,12.1143483 25.159151,11.7836341 25.2360293,11.4248879 C25.3129077,11.0661417 25.4001012,10.6961902 25.4976126,10.3150224 L16.2947259,23.5493274 C15.7901733,24.2780305 15.1383359,24.6423767 14.3391941,24.6423767 L13.6301,24.6423767 C13.2361569,24.6423767 12.9027083,24.5498888 12.6297443,24.3649103 C12.3567803,24.1799318 12.1602546,23.9080735 12.0401614,23.5493274 L7.21873959,10.2813901 C7.18876137,10.662558 7.15456204,11.0353121 7.11614057,11.3996637 C7.07771911,11.7640153 7.03226121,12.1031374 6.97976551,12.4170404 L4.47404601,27.4002242 L0,27.4002242 L4.08058249,3 L7.92995037,3 C8.14380522,3 8.33420874,3.00560533 8.50116666,3.01681614 C8.66812459,3.02802696 8.81210221,3.05885625 8.93310386,3.10930493 C9.05410551,3.15975362 9.15916295,3.23822817 9.24827933,3.34473094 C9.33739571,3.45123372 9.41666635,3.59977483 9.48609362,3.79035874 L14.1639842,16.8060538 C14.3009639,17.1984325 14.4276252,17.6020159 14.5439719,18.0168161 Z M36.811501,32.764574 C36.5770261,32.9215254 36.2346834,33 35.7844627,33 L32.3234082,33 L36.7827167,26.0213004 L32.4619053,10.0627803 L36.5476379,10.0627803 C36.91907,10.0627803 37.1920202,10.1468601 37.3664969,10.3150224 C37.5409735,10.4831847 37.6544837,10.6793711 37.7070309,10.9035874 L39.6296948,19.1939462 C39.7554447,19.8553845 39.8483642,20.5112075 39.9084559,21.161435 C40.0660009,20.8251104 40.2315164,20.4915936 40.4050073,20.1608744 C40.5784982,19.8301553 40.7543316,19.5022438 40.9325129,19.17713 L45.3888835,10.9035874 C45.5201743,10.6569494 45.7171236,10.4551577 45.9797373,10.2982063 C46.242351,10.1412548 46.5143478,10.0627803 46.7957357,10.0627803 L50.5269213,10.0627803 L37.4614363,32.058296 C37.2626188,32.3721989 37.0459759,32.6076225 36.811501,32.764574 Z M55.1573899,27.4002242 L50.0924321,27.4002242 L54.1730146,3 L62.4457789,3 C64.1228511,3 65.539168,3.19618638 66.6947721,3.58856502 C67.8503762,3.98094367 68.7635187,4.52746286 69.434227,5.22813901 C70.1049354,5.92881516 70.5481945,6.76120594 70.7640175,7.72533632 C70.9798406,8.6894667 70.9930722,9.7376625 70.8037127,10.8699552 C70.6031042,12.0695127 70.2224034,13.1681564 69.661599,14.1659193 C69.1007945,15.1636821 68.3608374,16.0212969 67.4417055,16.7387892 C66.5225736,17.4562816 65.4219476,18.0140115 64.1397946,18.4119955 C62.8576417,18.8099796 61.400562,19.0089686 59.7685119,19.0089686 L56.5607053,19.0089686 L55.1573899,27.4002242 Z M60.4153306,15.1412556 C62.0023586,15.1412556 63.2282172,14.7600935 64.0929432,13.9977578 C64.9576692,13.2354222 65.5006399,12.1928317 65.7218718,10.8699552 C65.8231135,10.264571 65.8225917,9.71244644 65.7203063,9.21356502 C65.6180209,8.7146836 65.4078803,8.2886789 65.0898781,7.93553812 C64.7718759,7.58239734 64.3418017,7.31053907 63.7996427,7.11995516 C63.2574837,6.92937124 62.592471,6.83408072 61.8045847,6.83408072 L58.5967782,6.83408072 L57.207524,15.1412556 L60.4153306,15.1412556 Z M81.1631163,27.2152466 C80.9530015,27.0919276 80.8075953,26.8340827 80.7268931,26.441704 L80.5382595,25.3486547 C80.0355495,25.7298225 79.5548843,26.0633394 79.0962493,26.3492152 C78.6376143,26.6350911 78.1696024,26.8761201 77.6921997,27.0723094 C77.2147969,27.2684987 76.7172309,27.4170399 76.1994867,27.5179372 C75.6817426,27.6188346 75.1189799,27.6692825 74.511182,27.6692825 C73.7458068,27.6692825 73.0648485,27.5683867 72.4682867,27.3665919 C71.8717249,27.1647972 71.3788057,26.8649123 70.9895143,26.4669283 C70.6002229,26.0689442 70.3314539,25.5728729 70.1831994,24.9786996 C70.0349448,24.3845262 70.0254999,23.7006765 70.1548643,22.92713 C70.2617305,22.2881134 70.531329,21.651909 70.9636678,21.0184978 C71.3960067,20.3850865 72.0525134,19.807738 72.9332078,19.286435 C73.8139022,18.7651319 74.9445542,18.3307192 76.3251978,17.9831839 C77.7058414,17.6356485 79.3960008,17.4394621 81.3957269,17.3946188 L81.5447764,16.5033632 C81.7266365,15.4159138 81.6294826,14.617155 81.2533119,14.1070628 C80.8771412,13.5969705 80.2557277,13.3419283 79.3890528,13.3419283 C78.7474883,13.3419283 78.2002042,13.4176001 77.7471841,13.5689462 C77.294164,13.7202922 76.8927388,13.8828467 76.5428964,14.0566143 C76.193054,14.230382 75.8647885,14.3929365 75.5580902,14.5442825 C75.2513918,14.6956286 74.9123317,14.7713004 74.5408996,14.7713004 C74.2144895,14.7713004 73.9551398,14.6900232 73.7628424,14.5274664 C73.5705451,14.3649095 73.4199863,14.1715258 73.3111615,13.9473094 L72.7313635,12.4674888 C73.909353,11.5482017 75.1553482,10.8615494 76.4693865,10.4075112 C77.7834247,9.95347307 79.1607763,9.7264574 80.6014826,9.7264574 C81.6369903,9.7264574 82.5346205,9.89461715 83.2944001,10.2309417 C84.0541798,10.5672663 84.6681101,11.0353109 85.1362095,11.6350897 C85.6043089,12.2348685 85.920934,12.9495474 86.0860944,13.779148 C86.2512547,14.6087485 86.2513417,15.5168112 86.0863552,16.5033632 L84.2640137,27.4002242 L82.1367315,27.4002242 C81.6977663,27.4002242 81.3732312,27.3385656 81.1631163,27.2152466 Z M78.5642162,24.1294843 C79.1841813,23.8548193 79.8233508,23.4316172 80.4817439,22.8598655 L80.9317048,20.1692825 C79.7873981,20.2141258 78.8260128,20.3094163 78.0475201,20.455157 C77.2690274,20.6008976 76.6392142,20.7830707 76.1580618,21.0016816 C75.6769093,21.2202926 75.3195761,21.4725322 75.0860515,21.7584081 C74.8525269,22.0442839 74.7076441,22.3553795 74.6513987,22.691704 C74.5389079,23.3643531 74.6477552,23.8408058 74.9779439,24.1210762 C75.3081326,24.4013467 75.8108849,24.5414798 76.486216,24.5414798 C77.2515912,24.5414798 77.944251,24.4041494 78.5642162,24.1294843 Z M90.8102186,10.0627803 L93.562179,10.0627803 C94.0349107,10.0627803 94.3472547,10.1468601 94.4992203,10.3150224 C94.6511859,10.4831847 94.7318771,10.7746616 94.7412964,11.1894619 L94.6879988,12.9215247 C95.4045057,11.9349726 96.1735466,11.1558325 96.9951447,10.5840807 C97.8167427,10.012329 98.7115156,9.7264574 99.6794902,9.7264574 C100.467376,9.7264574 101.077997,9.91143313 101.51137,10.2813901 L100.633772,13.7118834 C100.539998,13.9360998 100.42699,14.0902462 100.294746,14.1743274 C100.162501,14.2584085 99.995082,14.3004484 99.7924827,14.3004484 C99.6123944,14.3004484 99.3577397,14.2752245 99.028511,14.2247758 C98.6992823,14.1743271 98.3883509,14.1491031 98.0957074,14.1491031 C97.240288,14.1491031 96.5232508,14.3817241 95.9445741,14.8469731 C95.3658974,15.3122221 94.8327372,15.9596371 94.3450776,16.7892377 L92.5705445,27.4002242 L87.9107833,27.4002242 L90.8102186,10.0627803 Z M104.570266,27.3245516 C104.000903,27.0947298 103.543623,26.7668183 103.198413,26.3408072 C102.853203,25.9147961 102.624295,25.3991062 102.511681,24.793722 C102.399068,24.1883378 102.406506,23.5044881 102.533996,22.7421525 L104.09761,13.3923767 L102.45994,13.3923767 C102.212319,13.3923767 102.014405,13.3139021 101.866192,13.1569507 C101.717979,12.9999992 101.670122,12.7645756 101.722617,12.4506726 L102.026341,10.6345291 L104.896435,10.1300448 L106.592766,5.64013453 C106.800945,5.1356477 107.186417,4.88340807 107.749192,4.88340807 L110.180372,4.88340807 L109.297324,10.1636771 L113.788253,10.1636771 L113.2483,13.3923767 L108.757371,13.3923767 L107.244378,22.4394619 C107.163759,22.9215271 107.215383,23.3026892 107.39925,23.5829596 C107.583117,23.8632301 107.8889,24.0033632 108.31661,24.0033632 C108.54172,24.0033632 108.73728,23.9781393 108.903294,23.9276906 C109.069308,23.8772419 109.213746,23.8211886 109.336613,23.7595291 C109.45948,23.6978696 109.572966,23.6418164 109.677075,23.5913677 C109.781183,23.540919 109.883886,23.5156951 109.985186,23.5156951 C110.120252,23.5156951 110.22765,23.5465244 110.307382,23.6081839 C110.387115,23.6698434 110.459815,23.7735419 110.525486,23.9192825 L111.555574,26.1390135 C110.829641,26.6435003 110.039927,27.0246624 109.186408,27.2825112 C108.33289,27.54036 107.472806,27.6692825 106.606131,27.6692825 C105.818245,27.6692825 105.13963,27.5543733 104.570266,27.3245516 Z M128.357303,12.8963004 C128.19319,13.204598 128.005155,13.4540349 127.793195,13.6446188 L118.260801,23.9024664 L126.466032,23.9024664 L125.881083,27.4002242 L112.290113,27.4002242 L112.61071,25.4831839 C112.642583,25.2925999 112.736354,25.051571 112.892028,24.7600897 C113.047701,24.4686084 113.242768,24.1939475 113.477233,23.9360987 L123.079962,13.5605381 L115.094212,13.5605381 L115.679161,10.0627803 L129,10.0627803 L128.685027,11.9461883 C128.630657,12.2713021 128.521417,12.5880029 128.357303,12.8963004 Z" id="logo"></path>
            </g>
        </g>
    </g>
</svg>